<svg id="visual" viewBox="0 0 900 600" width="900" height="600" xmlns="http://www.w3.org/2000/svg" xmlns:xlink="http://www.w3.org/1999/xlink" version="1.1"><rect x="0" y="0" width="900" height="600" fill="#001220"></rect><defs><linearGradient id="grad1_0" x1="33.3%" y1="0%" x2="100%" y2="100%"><stop offset="20%" stop-color="#001220" stop-opacity="1"></stop><stop offset="80%" stop-color="#001220" stop-opacity="1"></stop></linearGradient></defs><defs><linearGradient id="grad2_0" x1="0%" y1="0%" x2="66.7%" y2="100%"><stop offset="20%" stop-color="#001220" stop-opacity="1"></stop><stop offset="80%" stop-color="#001220" stop-opacity="1"></stop></linearGradient></defs><g transform="translate(900, 0)"><path d="M0 486.7C-62.3 469.6 -124.6 452.5 -175.3 423.1C-225.9 393.8 -264.9 352.2 -313.2 313.2C-361.6 274.3 -419.2 238 -449.7 186.3C-480.2 134.5 -483.5 67.3 -486.7 0L0 0Z" fill="#FBAE3C"></path></g><g transform="translate(0, 600)"><path d="M0 -486.7C69.1 -486.6 138.2 -486.4 186.3 -449.7C234.4 -413 261.5 -339.7 285 -285C308.4 -230.2 328.2 -194 361.2 -149.6C394.3 -105.2 440.5 -52.6 486.7 0L0 0Z" fill="#FBAE3C"></path></g></svg>