<svg id="visual" viewBox="0 0 900 600" width="900" height="600" xmlns="http://www.w3.org/2000/svg" xmlns:xlink="http://www.w3.org/1999/xlink" version="1.1"><rect x="0" y="0" width="900" height="600" fill="#001220"></rect><path d="M0 419L21.5 416.7C43 414.3 86 409.7 128.8 405.7C171.7 401.7 214.3 398.3 257.2 389.5C300 380.7 343 366.3 385.8 359C428.7 351.7 471.3 351.3 514.2 356.8C557 362.3 600 373.7 642.8 373.8C685.7 374 728.3 363 771.2 360.7C814 358.3 857 364.7 878.5 367.8L900 371L900 601L878.5 601C857 601 814 601 771.2 601C728.3 601 685.7 601 642.8 601C600 601 557 601 514.2 601C471.3 601 428.7 601 385.8 601C343 601 300 601 257.2 601C214.3 601 171.7 601 128.8 601C86 601 43 601 21.5 601L0 601Z" fill="#fa7268"></path><path d="M0 414L21.5 419.7C43 425.3 86 436.7 128.8 447.3C171.7 458 214.3 468 257.2 471.3C300 474.7 343 471.3 385.8 461.8C428.7 452.3 471.3 436.7 514.2 435.3C557 434 600 447 642.8 443.7C685.7 440.3 728.3 420.7 771.2 416.5C814 412.3 857 423.7 878.5 429.3L900 435L900 601L878.5 601C857 601 814 601 771.2 601C728.3 601 685.7 601 642.8 601C600 601 557 601 514.2 601C471.3 601 428.7 601 385.8 601C343 601 300 601 257.2 601C214.3 601 171.7 601 128.8 601C86 601 43 601 21.5 601L0 601Z" fill="#ef5f67"></path><path d="M0 494L21.5 489.2C43 484.3 86 474.7 128.8 470C171.7 465.3 214.3 465.7 257.2 463.2C300 460.7 343 455.3 385.8 460.7C428.7 466 471.3 482 514.2 491.8C557 501.7 600 505.3 642.8 495.3C685.7 485.3 728.3 461.7 771.2 456.5C814 451.3 857 464.7 878.5 471.3L900 478L900 601L878.5 601C857 601 814 601 771.2 601C728.3 601 685.7 601 642.8 601C600 601 557 601 514.2 601C471.3 601 428.7 601 385.8 601C343 601 300 601 257.2 601C214.3 601 171.7 601 128.8 601C86 601 43 601 21.5 601L0 601Z" fill="#e34c67"></path><path d="M0 516L21.5 512.2C43 508.3 86 500.7 128.8 504C171.7 507.3 214.3 521.7 257.2 527C300 532.3 343 528.7 385.8 527.3C428.7 526 471.3 527 514.2 530C557 533 600 538 642.8 536.2C685.7 534.3 728.3 525.7 771.2 522C814 518.3 857 519.7 878.5 520.3L900 521L900 601L878.5 601C857 601 814 601 771.2 601C728.3 601 685.7 601 642.8 601C600 601 557 601 514.2 601C471.3 601 428.7 601 385.8 601C343 601 300 601 257.2 601C214.3 601 171.7 601 128.8 601C86 601 43 601 21.5 601L0 601Z" fill="#d53867"></path><path d="M0 546L21.5 550C43 554 86 562 128.8 560C171.7 558 214.3 546 257.2 541.8C300 537.7 343 541.3 385.8 543.5C428.7 545.7 471.3 546.3 514.2 545.3C557 544.3 600 541.7 642.8 542.2C685.7 542.7 728.3 546.3 771.2 545C814 543.7 857 537.3 878.5 534.2L900 531L900 601L878.5 601C857 601 814 601 771.2 601C728.3 601 685.7 601 642.8 601C600 601 557 601 514.2 601C471.3 601 428.7 601 385.8 601C343 601 300 601 257.2 601C214.3 601 171.7 601 128.8 601C86 601 43 601 21.5 601L0 601Z" fill="#c62368"></path></svg>