<svg id="visual" viewBox="0 0 900 600" width="900" height="600" xmlns="http://www.w3.org/2000/svg" xmlns:xlink="http://www.w3.org/1999/xlink" version="1.1"><g stroke-width="1" stroke-linejoin="bevel"><path d="M499 310L506 375L596 299Z" fill="#205a7a" stroke="#205a7a"></path><path d="M506 375L576 420L596 299Z" fill="#081a28" stroke="#081a28"></path><path d="M596 299L599 229L499 310Z" fill="#00101c" stroke="#00101c"></path><path d="M576 420L662 294L596 299Z" fill="#19435d" stroke="#19435d"></path><path d="M596 299L662 294L599 229Z" fill="#1d4e6b" stroke="#1d4e6b"></path><path d="M662 294L669 220L599 229Z" fill="#0c2435" stroke="#0c2435"></path><path d="M480 505L601 496L576 420Z" fill="#00101c" stroke="#00101c"></path><path d="M576 420L739 364L662 294Z" fill="#246688" stroke="#246688"></path><path d="M488 172L390 288L499 310Z" fill="#205a7a" stroke="#205a7a"></path><path d="M499 310L390 288L506 375Z" fill="#19435d" stroke="#19435d"></path><path d="M506 375L480 505L576 420Z" fill="#297ea6" stroke="#297ea6"></path><path d="M536 138L488 172L599 229Z" fill="#1d4e6b" stroke="#1d4e6b"></path><path d="M599 229L488 172L499 310Z" fill="#246688" stroke="#246688"></path><path d="M421 470L480 505L506 375Z" fill="#246688" stroke="#246688"></path><path d="M381 425L421 470L506 375Z" fill="#15384f" stroke="#15384f"></path><path d="M601 496L739 364L576 420Z" fill="#0c2435" stroke="#0c2435"></path><path d="M662 294L797 283L669 220Z" fill="#081a28" stroke="#081a28"></path><path d="M390 288L381 425L506 375Z" fill="#0c2435" stroke="#0c2435"></path><path d="M669 220L536 138L599 229Z" fill="#0c2435" stroke="#0c2435"></path><path d="M422 123L407 180L488 172Z" fill="#246688" stroke="#246688"></path><path d="M488 172L407 180L390 288Z" fill="#081a28" stroke="#081a28"></path><path d="M633 600L682 526L601 496Z" fill="#15384f" stroke="#15384f"></path><path d="M601 496L682 526L739 364Z" fill="#297ea6" stroke="#297ea6"></path><path d="M390 288L317 372L381 425Z" fill="#15384f" stroke="#15384f"></path><path d="M381 425L326 481L421 470Z" fill="#081a28" stroke="#081a28"></path><path d="M310 330L317 372L390 288Z" fill="#19435d" stroke="#19435d"></path><path d="M328 179L310 330L390 288Z" fill="#15384f" stroke="#15384f"></path><path d="M536 138L422 123L488 172Z" fill="#081a28" stroke="#081a28"></path><path d="M407 180L328 179L390 288Z" fill="#297ea6" stroke="#297ea6"></path><path d="M818 414L797 283L739 364Z" fill="#19435d" stroke="#19435d"></path><path d="M739 364L797 283L662 294Z" fill="#246688" stroke="#246688"></path><path d="M669 220L560 76L536 138Z" fill="#00101c" stroke="#00101c"></path><path d="M722 95L560 76L669 220Z" fill="#0c2435" stroke="#0c2435"></path><path d="M536 138L560 76L422 123Z" fill="#0c2435" stroke="#0c2435"></path><path d="M222 427L326 481L317 372Z" fill="#15384f" stroke="#15384f"></path><path d="M317 372L326 481L381 425Z" fill="#205a7a" stroke="#205a7a"></path><path d="M419 600L487 600L480 505Z" fill="#112e42" stroke="#112e42"></path><path d="M797 283L775 188L669 220Z" fill="#297ea6" stroke="#297ea6"></path><path d="M419 600L480 505L421 470Z" fill="#277297" stroke="#277297"></path><path d="M480 505L487 600L601 496Z" fill="#0c2435" stroke="#0c2435"></path><path d="M325 116L328 179L407 180Z" fill="#297ea6" stroke="#297ea6"></path><path d="M487 600L633 600L601 496Z" fill="#277297" stroke="#277297"></path><path d="M785 536L818 414L682 526Z" fill="#19435d" stroke="#19435d"></path><path d="M682 526L818 414L739 364Z" fill="#19435d" stroke="#19435d"></path><path d="M633 600L674 600L682 526Z" fill="#1d4e6b" stroke="#1d4e6b"></path><path d="M326 481L419 600L421 470Z" fill="#19435d" stroke="#19435d"></path><path d="M775 188L722 95L669 220Z" fill="#112e42" stroke="#112e42"></path><path d="M760 600L785 536L682 526Z" fill="#1d4e6b" stroke="#1d4e6b"></path><path d="M362 0L325 116L422 123Z" fill="#00101c" stroke="#00101c"></path><path d="M422 123L325 116L407 180Z" fill="#297ea6" stroke="#297ea6"></path><path d="M190 281L222 427L310 330Z" fill="#277297" stroke="#277297"></path><path d="M674 600L760 600L682 526Z" fill="#081a28" stroke="#081a28"></path><path d="M310 330L222 427L317 372Z" fill="#15384f" stroke="#15384f"></path><path d="M326 481L330 600L419 600Z" fill="#246688" stroke="#246688"></path><path d="M190 281L310 330L193 232Z" fill="#277297" stroke="#277297"></path><path d="M560 76L495 0L422 123Z" fill="#15384f" stroke="#15384f"></path><path d="M621 0L495 0L560 76Z" fill="#081a28" stroke="#081a28"></path><path d="M235 522L330 600L326 481Z" fill="#246688" stroke="#246688"></path><path d="M722 95L621 0L560 76Z" fill="#1d4e6b" stroke="#1d4e6b"></path><path d="M818 414L900 301L797 283Z" fill="#297ea6" stroke="#297ea6"></path><path d="M797 283L900 191L775 188Z" fill="#277297" stroke="#277297"></path><path d="M834 70L705 0L722 95Z" fill="#246688" stroke="#246688"></path><path d="M900 395L900 301L818 414Z" fill="#112e42" stroke="#112e42"></path><path d="M900 395L818 414L900 485Z" fill="#205a7a" stroke="#205a7a"></path><path d="M900 485L818 414L785 536Z" fill="#112e42" stroke="#112e42"></path><path d="M193 232L310 330L328 179Z" fill="#205a7a" stroke="#205a7a"></path><path d="M138 434L235 522L222 427Z" fill="#15384f" stroke="#15384f"></path><path d="M222 427L235 522L326 481Z" fill="#112e42" stroke="#112e42"></path><path d="M722 95L705 0L621 0Z" fill="#205a7a" stroke="#205a7a"></path><path d="M834 70L722 95L775 188Z" fill="#246688" stroke="#246688"></path><path d="M218 118L193 232L328 179Z" fill="#1d4e6b" stroke="#1d4e6b"></path><path d="M900 301L900 191L797 283Z" fill="#112e42" stroke="#112e42"></path><path d="M900 600L900 485L785 536Z" fill="#277297" stroke="#277297"></path><path d="M495 0L362 0L422 123Z" fill="#205a7a" stroke="#205a7a"></path><path d="M325 116L218 118L328 179Z" fill="#297ea6" stroke="#297ea6"></path><path d="M900 191L834 70L775 188Z" fill="#0c2435" stroke="#0c2435"></path><path d="M272 0L218 118L325 116Z" fill="#00101c" stroke="#00101c"></path><path d="M190 281L138 434L222 427Z" fill="#00101c" stroke="#00101c"></path><path d="M100 325L138 434L190 281Z" fill="#205a7a" stroke="#205a7a"></path><path d="M100 325L190 281L193 232Z" fill="#15384f" stroke="#15384f"></path><path d="M900 191L900 92L834 70Z" fill="#00101c" stroke="#00101c"></path><path d="M834 70L836 0L705 0Z" fill="#00101c" stroke="#00101c"></path><path d="M118 501L206 600L235 522Z" fill="#19435d" stroke="#19435d"></path><path d="M235 522L206 600L330 600Z" fill="#1d4e6b" stroke="#1d4e6b"></path><path d="M760 600L900 600L785 536Z" fill="#0c2435" stroke="#0c2435"></path><path d="M362 0L272 0L325 116Z" fill="#205a7a" stroke="#205a7a"></path><path d="M900 0L836 0L834 70Z" fill="#19435d" stroke="#19435d"></path><path d="M94 113L193 232L218 118Z" fill="#0c2435" stroke="#0c2435"></path><path d="M61 172L100 325L193 232Z" fill="#081a28" stroke="#081a28"></path><path d="M0 395L118 501L138 434Z" fill="#081a28" stroke="#081a28"></path><path d="M138 434L118 501L235 522Z" fill="#246688" stroke="#246688"></path><path d="M272 0L225 0L218 118Z" fill="#205a7a" stroke="#205a7a"></path><path d="M900 92L900 0L834 70Z" fill="#19435d" stroke="#19435d"></path><path d="M225 0L94 113L218 118Z" fill="#205a7a" stroke="#205a7a"></path><path d="M94 113L61 172L193 232Z" fill="#246688" stroke="#246688"></path><path d="M100 325L0 395L138 434Z" fill="#19435d" stroke="#19435d"></path><path d="M0 274L0 395L100 325Z" fill="#112e42" stroke="#112e42"></path><path d="M118 501L60 600L206 600Z" fill="#0c2435" stroke="#0c2435"></path><path d="M0 217L0 274L61 172Z" fill="#246688" stroke="#246688"></path><path d="M61 172L0 274L100 325Z" fill="#00101c" stroke="#00101c"></path><path d="M0 520L60 600L118 501Z" fill="#081a28" stroke="#081a28"></path><path d="M0 111L0 217L61 172Z" fill="#0c2435" stroke="#0c2435"></path><path d="M0 395L0 520L118 501Z" fill="#15384f" stroke="#15384f"></path><path d="M225 0L71 0L94 113Z" fill="#205a7a" stroke="#205a7a"></path><path d="M94 113L0 111L61 172Z" fill="#205a7a" stroke="#205a7a"></path><path d="M71 0L0 111L94 113Z" fill="#112e42" stroke="#112e42"></path><path d="M0 520L0 600L60 600Z" fill="#246688" stroke="#246688"></path><path d="M71 0L0 0L0 111Z" fill="#0c2435" stroke="#0c2435"></path></g></svg>