<svg id="visual" viewBox="0 0 900 600" width="900" height="600" xmlns="http://www.w3.org/2000/svg" xmlns:xlink="http://www.w3.org/1999/xlink" version="1.1"><path d="M0 199L13.7 184C27.3 169 54.7 139 82 124C109.3 109 136.7 109 163.8 120C191 131 218 153 245.2 180C272.3 207 299.7 239 327 231C354.3 223 381.7 175 409 150C436.3 125 463.7 123 491 121C518.3 119 545.7 117 573 130C600.3 143 627.7 171 654.8 194C682 217 709 235 736.2 232C763.3 229 790.7 205 818 196C845.3 187 872.7 193 886.3 196L900 199L900 0L886.3 0C872.7 0 845.3 0 818 0C790.7 0 763.3 0 736.2 0C709 0 682 0 654.8 0C627.7 0 600.3 0 573 0C545.7 0 518.3 0 491 0C463.7 0 436.3 0 409 0C381.7 0 354.3 0 327 0C299.7 0 272.3 0 245.2 0C218 0 191 0 163.8 0C136.7 0 109.3 0 82 0C54.7 0 27.3 0 13.7 0L0 0Z" fill="#6198ff"></path><path d="M0 313L13.7 295C27.3 277 54.7 241 82 219C109.3 197 136.7 189 163.8 201C191 213 218 245 245.2 268C272.3 291 299.7 305 327 290C354.3 275 381.7 231 409 206C436.3 181 463.7 175 491 176C518.3 177 545.7 185 573 198C600.3 211 627.7 229 654.8 260C682 291 709 335 736.2 338C763.3 341 790.7 303 818 294C845.3 285 872.7 305 886.3 315L900 325L900 197L886.3 194C872.7 191 845.3 185 818 194C790.7 203 763.3 227 736.2 230C709 233 682 215 654.8 192C627.7 169 600.3 141 573 128C545.7 115 518.3 117 491 119C463.7 121 436.3 123 409 148C381.7 173 354.3 221 327 229C299.7 237 272.3 205 245.2 178C218 151 191 129 163.8 118C136.7 107 109.3 107 82 122C54.7 137 27.3 167 13.7 182L0 197Z" fill="#3c80ff"></path><path d="M0 451L13.7 443C27.3 435 54.7 419 82 408C109.3 397 136.7 391 163.8 388C191 385 218 385 245.2 392C272.3 399 299.7 413 327 418C354.3 423 381.7 419 409 415C436.3 411 463.7 407 491 406C518.3 405 545.7 407 573 400C600.3 393 627.7 377 654.8 387C682 397 709 433 736.2 434C763.3 435 790.7 401 818 395C845.3 389 872.7 411 886.3 422L900 433L900 323L886.3 313C872.7 303 845.3 283 818 292C790.7 301 763.3 339 736.2 336C709 333 682 289 654.8 258C627.7 227 600.3 209 573 196C545.7 183 518.3 175 491 174C463.7 173 436.3 179 409 204C381.7 229 354.3 273 327 288C299.7 303 272.3 289 245.2 266C218 243 191 211 163.8 199C136.7 187 109.3 195 82 217C54.7 239 27.3 275 13.7 293L0 311Z" fill="#0066ff"></path><path d="M0 541L13.7 528C27.3 515 54.7 489 82 477C109.3 465 136.7 467 163.8 471C191 475 218 481 245.2 488C272.3 495 299.7 503 327 500C354.3 497 381.7 483 409 476C436.3 469 463.7 469 491 467C518.3 465 545.7 461 573 454C600.3 447 627.7 437 654.8 449C682 461 709 495 736.2 499C763.3 503 790.7 477 818 473C845.3 469 872.7 487 886.3 496L900 505L900 431L886.3 420C872.7 409 845.3 387 818 393C790.7 399 763.3 433 736.2 432C709 431 682 395 654.8 385C627.7 375 600.3 391 573 398C545.7 405 518.3 403 491 404C463.7 405 436.3 409 409 413C381.7 417 354.3 421 327 416C299.7 411 272.3 397 245.2 390C218 383 191 383 163.8 386C136.7 389 109.3 395 82 406C54.7 417 27.3 433 13.7 441L0 449Z" fill="#0059dd"></path><path d="M0 601L13.7 601C27.3 601 54.7 601 82 601C109.3 601 136.7 601 163.8 601C191 601 218 601 245.2 601C272.3 601 299.7 601 327 601C354.3 601 381.7 601 409 601C436.3 601 463.7 601 491 601C518.3 601 545.7 601 573 601C600.3 601 627.7 601 654.8 601C682 601 709 601 736.2 601C763.3 601 790.7 601 818 601C845.3 601 872.7 601 886.3 601L900 601L900 503L886.3 494C872.7 485 845.3 467 818 471C790.7 475 763.3 501 736.2 497C709 493 682 459 654.8 447C627.7 435 600.3 445 573 452C545.7 459 518.3 463 491 465C463.7 467 436.3 467 409 474C381.7 481 354.3 495 327 498C299.7 501 272.3 493 245.2 486C218 479 191 473 163.8 469C136.7 465 109.3 463 82 475C54.7 487 27.3 513 13.7 526L0 539Z" fill="#004cbb"></path></svg>