<svg id="visual" viewBox="0 0 900 600" width="900" height="600" xmlns="http://www.w3.org/2000/svg" xmlns:xlink="http://www.w3.org/1999/xlink" version="1.1"><path d="M0 187L82 229L164 103L245 217L327 133L409 85L491 301L573 205L655 115L736 301L818 253L900 181L900 0L818 0L736 0L655 0L573 0L491 0L409 0L327 0L245 0L164 0L82 0L0 0Z" fill="#00cc8e"></path><path d="M0 283L82 301L164 259L245 355L327 211L409 169L491 367L573 307L655 265L736 361L818 397L900 319L900 179L818 251L736 299L655 113L573 203L491 299L409 83L327 131L245 215L164 101L82 227L0 185Z" fill="#00b98a"></path><path d="M0 331L82 337L164 307L245 433L327 259L409 265L491 427L573 379L655 355L736 445L818 433L900 385L900 317L818 395L736 359L655 263L573 305L491 365L409 167L327 209L245 353L164 257L82 299L0 281Z" fill="#00a784"></path><path d="M0 535L82 481L164 499L245 517L327 487L409 493L491 553L573 553L655 547L736 559L818 541L900 505L900 383L818 431L736 443L655 353L573 377L491 425L409 263L327 257L245 431L164 305L82 335L0 329Z" fill="#00957c"></path><path d="M0 601L82 601L164 601L245 601L327 601L409 601L491 601L573 601L655 601L736 601L818 601L900 601L900 503L818 539L736 557L655 545L573 551L491 551L409 491L327 485L245 515L164 497L82 479L0 533Z" fill="#038373"></path></svg>